<svg xmlns="http://www.w3.org/2000/svg" width="640" height="420" viewBox="0 0 640 420" role="img" aria-labelledby="title desc">
  <title id="title">Library empty illustration</title>
  <desc id="desc">A stack of saved cards and a bookmark icon for the watchlist page.</desc>
  <defs>
    <linearGradient id="bg" x1="0" y1="0" x2="1" y2="1">
      <stop offset="0%" stop-color="#120f14"/>
      <stop offset="100%" stop-color="#07070a"/>
    </linearGradient>
    <linearGradient id="cardA" x1="0" y1="0" x2="1" y2="1">
      <stop offset="0%" stop-color="#262330"/>
      <stop offset="100%" stop-color="#15141b"/>
    </linearGradient>
    <linearGradient id="cardB" x1="0" y1="0" x2="1" y2="1">
      <stop offset="0%" stop-color="#1f1b24"/>
      <stop offset="100%" stop-color="#0f0f14"/>
    </linearGradient>
  </defs>
  <rect width="640" height="420" rx="28" fill="url(#bg)"/>
  <ellipse cx="322" cy="342" rx="190" ry="24" fill="#000" fill-opacity="0.28"/>
  <g transform="translate(168 86)">
    <rect x="0" y="30" width="156" height="224" rx="22" fill="url(#cardB)" stroke="rgba(255,255,255,0.08)"/>
    <rect x="26" y="12" width="156" height="224" rx="22" fill="url(#cardA)" stroke="rgba(255,255,255,0.1)"/>
    <rect x="52" y="0" width="156" height="224" rx="22" fill="url(#cardA)" stroke="rgba(255,255,255,0.12)"/>
    <circle cx="130" cy="64" r="28" fill="#ff4d5f" fill-opacity="0.18"/>
    <path d="M130 46l8 16 18 3-13 13 3 18-16-8-16 8 3-18-13-13 18-3z" fill="#ff4d5f"/>
    <rect x="74" y="122" width="80" height="12" rx="6" fill="rgba(255,255,255,0.14)"/>
    <rect x="74" y="146" width="62" height="10" rx="5" fill="rgba(255,255,255,0.08)"/>
    <rect x="74" y="166" width="90" height="10" rx="5" fill="rgba(255,255,255,0.08)"/>
  </g>
  <g transform="translate(394 102)">
    <path d="M0 0h96a18 18 0 0 1 18 18v184l-66-32-66 32V18A18 18 0 0 1 0 0z" fill="#ff4d5f" fill-opacity="0.14" stroke="rgba(255,255,255,0.12)"/>
    <path d="M24 28h66M24 52h50M24 76h58" stroke="rgba(255,255,255,0.2)" stroke-width="6" stroke-linecap="round"/>
  </g>
  <path d="M92 312c48-30 102-43 166-39 42 2 82 15 118 15 36 0 74-13 112-24 44-16 76-18 112-8" fill="none" stroke="rgba(255,255,255,0.08)" stroke-width="3" stroke-linecap="round"/>
</svg>