<svg xmlns="http://www.w3.org/2000/svg" width="640" height="420" viewBox="0 0 640 420" role="img" aria-labelledby="title desc">
  <title id="title">Search empty illustration</title>
  <desc id="desc">A magnifying glass hovering over stylized media cards.</desc>
  <defs>
    <linearGradient id="bg" x1="0" y1="0" x2="1" y2="1">
      <stop offset="0%" stop-color="#121218"/>
      <stop offset="100%" stop-color="#0a0a0d"/>
    </linearGradient>
    <linearGradient id="card" x1="0" y1="0" x2="1" y2="1">
      <stop offset="0%" stop-color="#22222b"/>
      <stop offset="100%" stop-color="#15151b"/>
    </linearGradient>
  </defs>
  <rect width="640" height="420" rx="28" fill="url(#bg)"/>
  <ellipse cx="320" cy="330" rx="210" ry="26" fill="#000" fill-opacity="0.25"/>
  <g transform="translate(118 108)">
    <rect x="0" y="0" width="120" height="164" rx="18" fill="url(#card)" stroke="rgba(255,255,255,0.1)"/>
    <rect x="132" y="26" width="120" height="164" rx="18" fill="url(#card)" stroke="rgba(255,255,255,0.1)" opacity="0.9"/>
    <rect x="264" y="0" width="120" height="164" rx="18" fill="url(#card)" stroke="rgba(255,255,255,0.1)" opacity="0.8"/>
    <rect x="18" y="18" width="84" height="108" rx="12" fill="#ff4d5f" fill-opacity="0.14"/>
    <polygon points="54,50 80,64 54,78" fill="#ff4d5f"/>
    <rect x="150" y="44" width="84" height="108" rx="12" fill="#ffd700" fill-opacity="0.12"/>
    <circle cx="192" cy="88" r="20" fill="none" stroke="#ffd700" stroke-width="6"/>
    <path d="M206 102l22 22" stroke="#ffd700" stroke-width="8" stroke-linecap="round"/>
    <rect x="282" y="18" width="84" height="108" rx="12" fill="#e5e5e5" fill-opacity="0.08"/>
    <path d="M304 52h40M304 74h28M304 96h18" stroke="rgba(255,255,255,0.22)" stroke-width="8" stroke-linecap="round"/>
  </g>
  <g transform="translate(382 206)">
    <circle cx="0" cy="0" r="72" fill="none" stroke="#ff4d5f" stroke-width="14"/>
    <circle cx="0" cy="0" r="56" fill="none" stroke="rgba(255,255,255,0.08)" stroke-width="4"/>
    <path d="M47 47l58 58" stroke="#ff4d5f" stroke-width="18" stroke-linecap="round"/>
  </g>
  <path d="M86 310c32-28 70-36 120-24 38 9 68 28 102 28s62-18 102-28c52-13 88-6 122 22" fill="none" stroke="rgba(255,255,255,0.08)" stroke-width="3" stroke-linecap="round"/>
</svg>