<svg xmlns="http://www.w3.org/2000/svg" width="640" height="420" viewBox="0 0 640 420" role="img" aria-labelledby="title desc">
  <title id="title">Error state illustration</title>
  <desc id="desc">A cinematic screen with a warning symbol and subtle red glow.</desc>
  <defs>
    <linearGradient id="bg" x1="0" y1="0" x2="1" y2="1">
      <stop offset="0%" stop-color="#140d11"/>
      <stop offset="100%" stop-color="#09070a"/>
    </linearGradient>
    <radialGradient id="glow" cx="50%" cy="40%" r="55%">
      <stop offset="0%" stop-color="#ff4d5f" stop-opacity="0.28"/>
      <stop offset="100%" stop-color="#ff4d5f" stop-opacity="0"/>
    </radialGradient>
  </defs>
  <rect width="640" height="420" rx="28" fill="url(#bg)"/>
  <rect x="84" y="72" width="472" height="246" rx="26" fill="#0f1016" stroke="rgba(255,255,255,0.1)"/>
  <rect x="108" y="96" width="424" height="198" rx="18" fill="#1b1c24"/>
  <rect x="108" y="96" width="424" height="198" rx="18" fill="url(#glow)"/>
  <circle cx="320" cy="194" r="52" fill="rgba(255,77,95,0.18)"/>
  <path d="M320 150l38 70h-76z" fill="#ff4d5f"/>
  <rect x="308" y="176" width="24" height="26" rx="10" fill="#0f1016"/>
  <circle cx="320" cy="212" r="6" fill="#0f1016"/>
  <path d="M168 328c38-24 74-34 120-30 34 3 64 17 98 17s62-12 96-24c44-16 76-18 112-8" fill="none" stroke="rgba(255,255,255,0.08)" stroke-width="3" stroke-linecap="round"/>
</svg>