<svg xmlns="http://www.w3.org/2000/svg" width="1280" height="720" viewBox="0 0 1280 720" role="img" aria-labelledby="title desc">
  <title id="title">Clockwatch backdrop placeholder</title>
  <desc id="desc">Wide atmospheric backdrop with gradients, light beams, and cinema silhouettes.</desc>
  <defs>
    <linearGradient id="sky" x1="0" y1="0" x2="0" y2="1">
      <stop offset="0%" stop-color="#09090d"/>
      <stop offset="65%" stop-color="#121217"/>
      <stop offset="100%" stop-color="#050507"/>
    </linearGradient>
    <radialGradient id="glowA" cx="35%" cy="40%" r="45%">
      <stop offset="0%" stop-color="#ff4d5f" stop-opacity="0.35"/>
      <stop offset="60%" stop-color="#ff4d5f" stop-opacity="0.1"/>
      <stop offset="100%" stop-color="#ff4d5f" stop-opacity="0"/>
    </radialGradient>
    <radialGradient id="glowB" cx="72%" cy="35%" r="40%">
      <stop offset="0%" stop-color="#ffd700" stop-opacity="0.18"/>
      <stop offset="60%" stop-color="#ffd700" stop-opacity="0.06"/>
      <stop offset="100%" stop-color="#ffd700" stop-opacity="0"/>
    </radialGradient>
    <linearGradient id="beam" x1="0" y1="0" x2="0" y2="1">
      <stop offset="0%" stop-color="#ffffff" stop-opacity="0.14"/>
      <stop offset="100%" stop-color="#ffffff" stop-opacity="0"/>
    </linearGradient>
  </defs>
  <rect width="1280" height="720" fill="url(#sky)"/>
  <rect width="1280" height="720" fill="url(#glowA)"/>
  <rect width="1280" height="720" fill="url(#glowB)"/>
  <path d="M0 130L1280 240V0H0Z" fill="url(#beam)" opacity="0.45"/>
  <path d="M0 220L1280 340V0H0Z" fill="url(#beam)" opacity="0.22"/>
  <path d="M0 680C140 620 260 605 380 620C494 634 580 670 690 670C818 670 934 624 1040 612C1132 602 1208 612 1280 636V720H0Z" fill="#050507"/>
  <circle cx="1024" cy="170" r="76" fill="#ffd700" fill-opacity="0.12"/>
  <circle cx="1024" cy="170" r="40" fill="none" stroke="rgba(255,255,255,0.18)" stroke-width="8"/>
  <polygon points="1014,146 1060,170 1014,194" fill="#ff4d5f"/>
  <g fill="rgba(255,255,255,0.08)">
    <rect x="120" y="470" width="26" height="130" rx="8"/>
    <rect x="176" y="430" width="30" height="170" rx="10"/>
    <rect x="240" y="500" width="22" height="100" rx="7"/>
    <rect x="1030" y="450" width="30" height="150" rx="10"/>
    <rect x="1100" y="488" width="24" height="112" rx="8"/>
  </g>
  <path d="M120 620c36-20 70-24 102-13 30 10 46 26 76 28 30 2 66-10 108-28 46-20 82-30 112-30s58 10 88 28c26 15 52 23 78 23 28 0 58-9 90-27 36-21 64-31 82-31 20 0 42 9 66 28" fill="none" stroke="rgba(255,255,255,0.1)" stroke-width="3" stroke-linecap="round"/>
  <path d="M0 656C120 630 232 622 334 628C442 634 530 656 642 656C754 656 838 630 948 622C1052 614 1162 624 1280 652" fill="none" stroke="rgba(229,9,20,0.12)" stroke-width="4" stroke-linecap="round"/>
</svg>